# xmcd
#
# Track frame offsets:
# 150
# 7892
# 17025
# 38467
# 68770
# 89047
# 121412
# 147557
# 163580
# 193254
#
# Disc length: 2902 seconds
#
# Revision: 1
# Processed by: cddbd v1.5.1PL0 Copyright (c) Steve Scherf et al.
# Submitted via: CedeCatalogueitor 2.6.0.6 http://personales.ya.com/cdcatalogueitor
#
DISCID=830b540a
DTITLE=CAMARON - Venta De Vargas
DYEAR=2005
DGENRE=Flamenco
TTITLE0=Bulerías Del Chozas
TTITLE1=Fandango Caracolero
TTITLE2=Seguiriyas De Los Grillos
TTITLE3=Tangos Extremeños
TTITLE4=Se Me Acabó El Gusto (Fandangos)
TTITLE5=Azúcar Cande. (Bulerías)
TTITLE6=Tarantos Del Tio Rufino
TTITLE7=De Invierno. (Fandangos)
TTITLE8=Sierra De Armenia. (Seguiryas)
TTITLE9=Amante De Abril Y Mayo (Bulerías)
EXTD=
EXTT0=
EXTT1=
EXTT2=
EXTT3=
EXTT4=
EXTT5=
EXTT6=
EXTT7=
EXTT8=
EXTT9=
PLAYORDER=
